<svg xmlns="http://www.w3.org/2000/svg" viewBox="0 0 179 24"><g fill="none" fill-rule="evenodd"><path fill="#091f2f" d="M8.514 13.327q2.595 0 4.24-2.06l2.256 2.33q-2.685 3.036-6.326 3.035-3.645 0-6-2.31T.33 8.495q0-3.52 2.402-5.875Q5.131.264 8.605.264 12.483.265 15.1 3.23l-2.188 2.49q-1.668-2.08-4.15-2.08-1.984 0-3.393 1.302-1.41 1.302-1.41 3.508-.001 2.208 1.33 3.543 1.33 1.337 3.224 1.337M17.69.627h3.517V16.45H17.69Zm13.846 3.056V16.45h-3.518V3.683h-4.466V.627h12.45v3.056ZM46.332 16.45h-3.518v-6.247L37.356.627h3.812l3.405 5.886L47.98.627h3.81l-5.458 9.576Zm21.713-8.496q0 1.579-.568 2.87-.57 1.293-1.56 1.984-.993.691-2.284.692-1.494 0-2.373-.895-.88-.894-.88-2.433 0-1.554.556-2.85.555-1.297 1.56-2.02c1.005-.723 1.443-.722 2.32-.722q1.516 0 2.373.906.855.906.855 2.468ZM66.2 7.876q0-.835-.38-1.31-.382-.47-1.09-.47-.723 0-1.296.557-.571.56-.887 1.516a6.5 6.5 0 0 0-.315 2.04q0 .869.385 1.33.385.46 1.14.46.701 0 1.26-.53.561-.531.872-1.49.31-.957.31-2.104Zm1.615 9.326q-.7 0-1.16-.18v-1.484q.499.156.888.156 1.042 0 1.377-1.6l1.69-7.983h-1.394l.164-.827 1.51-.594.162-.72q.344-1.545 1.047-2.198t1.995-.653q.895-.001 1.642.335l-.474 1.375a3 3 0 0 0-1.06-.22q-.536 0-.86.337-.322.335-.493 1.102l-.14.67h1.782l-.288 1.39h-1.782l-1.735 8.225q-.312 1.476-1.02 2.172-.709.695-1.852.695m22.679-.75h-6.9V.627h6.133q1.6.001 2.763.385 1.16.385 1.747 1.042 1.06 1.223 1.06 2.76-.001 1.86-1.196 2.763-.405.316-.563.396t-.564.26q1.467.317 2.335 1.325.868 1.006.868 2.5 0 1.654-1.128 2.92-1.308 1.472-4.555 1.472M87.11 7.034h1.67q1.463 0 2.175-.317.71-.316.71-1.37 0-1.051-.654-1.392-.653-.34-2.21-.34h-1.69v3.42Zm0 6.428h2.413q1.511 0 2.266-.373.755-.374.755-1.473 0-1.096-.8-1.448-.802-.352-2.56-.352H87.11v3.644Zm25.19.804q-2.39 2.343-5.885 2.343-3.496 0-5.886-2.344-2.392-2.343-2.392-5.83 0-3.485 2.39-5.828t5.887-2.343q3.495 0 5.886 2.343 2.39 2.343 2.39 5.83 0 3.485-2.39 5.828Zm-1.194-5.818q0-2.116-1.353-3.61c-1.353-1.494-2.012-1.494-3.327-1.494s-2.424.498-3.326 1.494q-1.354 1.495-1.354 3.61-.001 2.116 1.354 3.6 1.353 1.482 3.326 1.482t3.327-1.482q1.353-1.484 1.353-3.6m10.112-4.663q-.509.42-.508 1.11 0 .69.62 1.097t2.865.962 3.484 1.664 1.24 3.237q0 2.13-1.59 3.452-1.59 1.325-4.184 1.325-3.744-.001-6.743-2.785l2.097-2.58q2.549 2.24 4.714 2.24.969 0 1.522-.418.552-.42.553-1.133c.001-.713-.197-.852-.588-1.132q-.586-.419-2.323-.85-2.753-.655-4.026-1.708-1.274-1.051-1.274-3.305 0-2.252 1.612-3.474t4.025-1.223q1.579-.001 3.158.544 1.579.541 2.75 1.538l-1.78 2.58q-2.054-1.56-4.24-1.56-.881 0-1.387.417m17.463-.1V16.45h-3.52V3.683h-4.464V.627h12.45v3.056Zm19.886 10.583q-2.391 2.343-5.886 2.343c-3.495 0-4.293-.782-5.886-2.344q-2.39-2.343-2.39-5.83 0-3.485 2.39-5.828t5.886-2.343q3.495 0 5.886 2.343 2.39 2.343 2.39 5.83 0 3.485-2.39 5.828Zm-1.195-5.818q0-2.116-1.354-3.61t-3.327-1.494q-1.974 0-3.327 1.494-1.353 1.495-1.354 3.61 0 2.116 1.353 3.6 1.352 1.482 3.326 1.482 1.972 0 3.326-1.482 1.353-1.484 1.353-3.6ZM175.007.627h3.518V16.45h-3.518l-7.51-9.914v9.914h-3.518V.627h3.29l7.737 10.187V.627"/><path fill="#fb4d42" d="M83 20h96v3.5H83Z"/></g><script/></svg>